<?xml version="1.0" encoding="utf-8"?>
<!-- Generator: Adobe Illustrator 28.2.0, SVG Export Plug-In . SVG Version: 6.00 Build 0)  -->
<svg version="1.1" id="SvgjsSvg1001" xmlns:svgjs="http://svgjs.com/svgjs"
	 xmlns="http://www.w3.org/2000/svg" xmlns:xlink="http://www.w3.org/1999/xlink" x="0px" y="0px" viewBox="0 0 288 288"
	 style="enable-background:new 0 0 288 288;" xml:space="preserve">
<style type="text/css">
	.st0{fill:#EABD88;}
	.st1{opacity:0.25;enable-background:new    ;}
	.st2{fill:#FFFFFF;}
</style>
<g id="SvgjsG1008">
	<path class="st0" d="M288,144c0,79.5-64.5,144-144,144S0,223.5,0,144S64.5,0,144,0S288,64.5,288,144z"/>
	<path class="st1" d="M159.4,286.5c4.5-0.5,9.2-0.5,13.6-1.4c18.4-3.8,35.9-11.1,51.5-21.7c7.6-5.2,14.8-11.1,21.3-17.6
		c6.5-6.5,12.4-13.7,17.6-21.3c2.6-3.9,4.4-8.2,6.7-12.3l-77.7-77.8l-0.4-0.4c-2.5-2.4-5.1-4.6-8-6.7c-2.4-1.7-5-3.3-7.6-4.7
		c-0.2-0.1-0.3-0.2-0.5-0.3l-21-21c-0.1-0.1-0.2-0.2-0.3-0.3l-0.4-0.4c-1.1-1-2.2-1.7-3.5-2.3c-0.5-0.2-1.1-0.4-1.6-0.6
		c-0.2-0.1-0.5-0.2-0.7-0.2c-6.6-1.4-13,2.7-14.5,9.3c-0.2,0.9-0.3,1.8-0.3,2.7c0,2.7,0.7,5.4,2.7,7.5
		c-31.2,4.7-54.3,30.5-54.3,62.4c0,1,0,1.9,0.1,2.7c0.1,0.8,0.3,1.7,0.6,2.7H64.3c-1.4,0-2.7,1.4-2.7,2.7c0,0.7,0.3,1.4,0.8,1.9
		L159.4,286.5z"/>
	<path class="st2" d="M145.7,97.4c-6.8,0-12.2,5.4-12.2,12.2c0,2.7,0.7,5.4,2.7,7.5c-31.2,4.8-54.3,30.5-54.3,62.4
		c0,2,0,3.4,0.7,5.4H64.3c-1.4,0-2.7,1.4-2.7,2.7c0,1.3,1.4,2.7,2.7,2.7h20.3c46.1,0,112.6,0.7,139.1,0c1.4,0,2.7-1.3,2.7-2.7
		c0-1.3-1.4-2.7-2.7-2.7h-13.6c0-2,0.7-4.1,0.7-6.1c0-31.9-23.7-57.7-54.9-63.1c1.3-2,2.7-4.7,2.7-7.5
		C157.9,103.5,152.5,97.4,145.7,97.4L145.7,97.4z M172.2,140.8h0.7c7.5,1.4,14.2,6.8,15.6,13.6c0.7,1.4-0.7,3.4-2,3.4
		c-1.3,0.7-3.4-0.7-3.4-2c-1.3-5.4-6.1-8.8-11.5-10.2C169.4,146.2,169.4,141.5,172.2,140.8z"/>
</g>
</svg>
